<?xml version="1.0" encoding="UTF-8"?>
<svg width="21px" height="20px" viewBox="0 0 72 69" version="1.1" xmlns="http://www.w3.org/2000/svg" xmlns:xlink="http://www.w3.org/1999/xlink">
    <!-- Generator: Sketch 63.1 (92452) - https://sketch.com -->
    <title>calendar-3</title>
    <desc>Created with Sketch.</desc>
    <g id="Page-1" stroke="none" stroke-width="1" fill="none" fill-rule="evenodd">
        <g id="Desktop-HD" transform="translate(-764.000000, -443.000000)" fill="#408fb0" fill-rule="nonzero">
            <g id="calendar-3" transform="translate(764.000000, 443.000000)">
                <path d="M61.92,6.012 L61.632,6.012 L61.632,4.867 C61.632,3.577 61.116,2.338 60.198,1.426 C59.277648,0.512054744 58.0330518,-5.1775416e-07 56.736,-5.1775416e-07 C55.4389482,-5.1775416e-07 54.194352,0.512054744 53.274,1.426 C52.3569583,2.33634934 51.8408343,3.57483102 51.84,4.867 L51.84,6.012 L20.16,6.012 L20.16,4.867 C20.16,3.577 19.644,2.338 18.726,1.426 C17.805648,0.512054744 16.5610518,-5.1775416e-07 15.264,-5.1775416e-07 C13.9669482,-5.1775416e-07 12.722352,0.512054744 11.802,1.426 C10.8849583,2.33634934 10.3688343,3.57483102 10.368,4.867 L10.368,6.012 L10.08,6.012 C7.40962835,6.01057489 4.84714495,7.06569397 2.952,8.947 C1.06357424,10.8216021 0.00103849475,13.3721198 0,16.033 L0,58.98 C0.00114931335,61.6408581 1.06366803,64.1913349 2.952,66.066 C4.84730768,67.9469396 7.40977116,69.001691 10.08,68.9999995 L61.92,68.9999995 C64.5903716,69.0014251 67.152855,67.946306 69.048,66.065 C70.936332,64.1903349 71.9988507,61.6398581 72,58.979 L72,16.033 C72,14.716566 71.7393452,13.4131597 71.233,12.198 C70.7256146,10.9814457 69.9830905,9.87700484 69.048,8.948 C68.1108979,8.01641911 66.9998427,7.27809408 65.778,6.775 C64.5541762,6.27113247 63.2434905,6.01191703 61.92,6.012 Z M54.72,4.867 C54.72,4.336 54.932,3.826 55.31,3.45 C56.0986534,2.66603615 57.3723466,2.66603615 58.161,3.45 C58.54,3.826 58.752,4.336 58.752,4.867 L58.752,10.021 C58.752,10.552 58.54,11.062 58.162,11.438 C57.37323,12.2226268 56.09877,12.2226268 55.31,11.438 C54.9325108,11.0630626 54.7201551,10.553049 54.72,10.021 L54.72,4.867 Z M13.248,8.876 L13.248,4.867 C13.248,4.336 13.46,3.826 13.838,3.45 C14.6266534,2.66603615 15.9003466,2.66603615 16.689,3.45 C17.068,3.826 17.28,4.336 17.28,4.867 L17.28,10.021 C17.28,10.552 17.068,11.062 16.69,11.438 C15.90123,12.2226268 14.62677,12.2226268 13.838,11.438 C13.4605108,11.0630626 13.2481551,10.553049 13.248,10.021 L13.248,8.876 L13.248,8.876 Z M69.12,58.979 C69.12,59.919 68.934,60.85 68.572,61.719 C68.2097281,62.5877459 67.6796041,63.3764752 67.012,64.04 C65.6574072,65.3820915 63.8278642,66.135327 61.921,66.136 L10.079,66.136 C8.169,66.136 6.339,65.383 4.988,64.04 C3.63934514,62.7014001 2.88026722,60.8801889 2.879,58.98 L2.879,26.053 L69.119,26.053 L69.119,58.978 L69.12,58.979 Z M69.12,23.191 L2.88,23.191 L2.88,16.033 C2.88,14.135 3.639,12.314 4.989,10.972 C6.34261306,9.62843206 8.1727921,8.87493466 10.08,8.87599887 L10.368,8.87599887 L10.368,10.021 C10.368,11.311 10.884,12.55 11.802,13.462 C12.722352,14.3759453 13.9669482,14.8885952 15.264,14.888 C16.5610518,14.8885952 17.805648,14.3759453 18.726,13.462 C19.6430417,12.5516507 20.1591657,11.313169 20.16,10.021 L20.16,8.87599887 L51.84,8.87599887 L51.84,10.021 C51.84,11.311 52.356,12.55 53.274,13.462 C54.194352,14.3759453 55.4389482,14.8885952 56.736,14.888 C58.0330518,14.8885952 59.277648,14.3759453 60.198,13.462 C61.1150417,12.5516507 61.6311657,11.313169 61.632,10.021 L61.632,8.87599887 L61.92,8.87599887 C63.8268642,8.87667296 65.6564072,9.62990849 67.011,10.972 C67.6787537,11.6357857 68.2088896,12.4248725 68.571,13.294 C68.934,14.162 69.12,15.094 69.12,16.034 L69.12,23.191 L69.12,23.191 Z" id="Shape"></path>
                <path d="M12.14,38.064 C12.401,38.164 12.68,38.218 12.96,38.222 C13.387,38.222 13.804,38.095 14.159,37.859 C14.6966895,37.5046871 15.045844,36.9267147 15.1093027,36.2859178 C15.1727614,35.6451209 14.9437513,35.0098923 14.486,34.557 C14.0457395,34.1090652 13.4273766,33.8828707 12.802,33.941 L12.528,33.941 C12.3988059,33.964013 12.2728843,34.002629 12.153,34.056 L11.765,34.356 C11.042883,34.841645 10.6829251,35.7133504 10.852,36.567 C10.9926627,37.2718243 11.4752961,37.8602096 12.139,38.136 L12.139,38.064 L12.14,38.064 Z M36,38.222 C37.193,38.222 38.16,37.261 38.16,36.075 C38.1561399,34.8857677 37.1892339,33.9246811 36,33.9279914 C34.807,33.9279914 33.84,34.889 33.84,36.075 C33.84,37.261 34.807,38.222 36,38.222 L36,38.222 Z M47.52,38.222 C48.713,38.222 49.68,37.261 49.68,36.075 C49.6761399,34.8857677 48.7092339,33.9246811 47.52,33.9279914 C46.327,33.9279914 45.36,34.889 45.36,36.075 C45.36,37.261 46.327,38.222 47.52,38.222 Z M24.48,38.222 C25.673,38.222 26.64,37.261 26.64,36.075 C26.6361399,34.8857677 25.6692339,33.9246811 24.48,33.9279914 C23.287,33.9279914 22.32,34.889 22.32,36.075 C22.32,37.261 23.287,38.222 24.48,38.222 Z M57.038,36.89 C57.2654779,37.419032 57.6886251,37.839671 58.219,38.064 C58.481,38.164 58.759,38.218 59.04,38.221 C59.321,38.218 59.599,38.165 59.86,38.064 C60.121,37.947 60.36,37.788 60.566,37.592 C60.761,37.389 60.921,37.157 61.042,36.904 C61.173948,36.5626946 61.2232914,36.1950179 61.186,35.831 L61.186,35.659 C61.1559532,35.5168498 61.1124229,35.3778878 61.056,35.244 L60.912,34.958 C60.8519409,34.8460011 60.7742856,34.7443739 60.682,34.657 L60.538,34.514 C60.4782604,34.4522864 60.4102851,34.3991176 60.336,34.356 C60.1965133,34.235798 60.0352675,34.1434636 59.861,34.084 C59.6594218,34.0164743 59.4517903,33.968585 59.241,33.941 C58.5578798,33.8639827 57.8803161,34.1261931 57.427,34.643 C57.3450045,34.7354097 57.2726313,34.8359281 57.211,34.943 C57.1192508,35.0701235 57.0464884,35.2099215 56.995,35.358 C56.995,35.458 56.995,35.558 56.895,35.874 C56.8879255,35.940479 56.8879255,36.007521 56.895,36.074 C56.898,36.307 56.931,36.538 56.995,36.761 L57.039,36.891 L57.038,36.89 Z M59.386,35.459 L59.386,35.587 L59.386,35.459 Z M59.27,35.774 L59.27,35.874 L59.27,35.774 Z M59.011,36.518 L58.925,36.747 L59.011,36.518 Z M12.96,48.242 C13.387,48.242 13.804,48.116 14.159,47.88 C14.6966895,47.5256871 15.045844,46.9477147 15.1093027,46.3069178 C15.1727614,45.6661209 14.9437513,45.0308923 14.486,44.578 C13.6130201,43.8105551 12.3059799,43.8105551 11.433,44.578 C11.0312331,44.9810936 10.8039053,45.5258903 10.8,46.095 C10.7952958,46.6658308 11.0239537,47.2138152 11.433,47.612 C11.84,48.012 12.388,48.239 12.96,48.242 Z M47.52,48.243 C48.713,48.243 49.68,47.281 49.68,46.095 C49.6761399,44.9057677 48.7092339,43.9446811 47.52,43.9479914 C46.327,43.9479914 45.36,44.91 45.36,46.096 C45.36,47.282 46.327,48.243 47.52,48.243 Z M36,48.243 C37.193,48.243 38.16,47.281 38.16,46.095 C38.1555892,44.9061587 37.1888448,43.9456803 36,43.9489914 C34.807,43.9489914 33.84,44.911 33.84,46.097 C33.84,47.283 34.807,48.244 36,48.244 L36,48.243 Z M24.48,48.243 C25.673,48.243 26.64,47.281 26.64,46.095 C26.6361399,44.9057677 25.6692339,43.9446811 24.48,43.9479914 C23.287,43.9479914 22.32,44.91 22.32,46.096 C22.32,47.282 23.287,48.243 24.48,48.243 Z M57.038,46.912 C57.15,47.174 57.312,47.412 57.514,47.613 C57.715,47.816 57.954,47.976 58.219,48.086 C58.481,48.186 58.759,48.239 59.039,48.243 C59.320165,48.2400528 59.5985407,48.1868837 59.861,48.086 C60.121,47.969 60.36,47.81 60.566,47.613 C60.7600506,47.4108729 60.9204212,47.1789264 61.041,46.926 C61.1574377,46.6155287 61.2068536,46.2839309 61.186,45.953 C61.206,45.83 61.206,45.703 61.186,45.581 L61.114,45.337 C61.0609768,45.1706573 60.9779406,45.0154306 60.869,44.879 C60.7722623,44.7392714 60.6613394,44.6099173 60.538,44.493 L60.336,44.378 C60.1947795,44.2602703 60.0340127,44.1682102 59.861,44.106 C59.6594184,44.0384863 59.4517881,43.9905973 59.241,43.963 C58.6014851,43.8923399 57.9649091,44.1190303 57.514,44.578 C57.1116244,44.9811777 56.8839093,45.5264009 56.88,46.096 C56.883,46.328 56.917,46.559 56.98,46.783 L57.038,46.912 L57.038,46.912 Z M10.959,56.932 C11.2336379,57.599306 11.8248579,58.0842266 12.533,58.223 C13.2419291,58.3636891 13.9743992,58.1425236 14.487,57.633 C14.6809626,57.4311758 14.8413291,57.1995728 14.962,56.947 C15.094,56.605 15.143,56.237 15.106,55.873 L15.106,55.7 C15.0743776,55.5582668 15.030891,55.4194442 14.976,55.285 C14.9284729,55.1555266 14.8602532,55.0346224 14.774,54.927 L14.644,54.755 L14.515,54.598 C13.5964713,53.7811277 12.1960722,53.8381515 11.347,54.727 C11.2821479,54.7973852 11.2245256,54.8741032 11.175,54.956 C11.077,55.09 11.005,55.24 10.959,55.4 C10.901,55.566 10.862,55.74 10.843,55.915 C10.8358262,55.9814737 10.8358262,56.0485263 10.843,56.115 C10.846,56.348 10.88,56.579 10.944,56.802 L10.958,56.932 L10.959,56.932 Z M24.48,58.263 C25.673,58.263 26.64,57.302 26.64,56.116 C26.6361399,54.9267677 25.6692339,53.9656811 24.48,53.9689914 C23.287,53.9689914 22.32,54.93 22.32,56.116 C22.32,57.302 23.287,58.263 24.48,58.263 L24.48,58.263 Z M36,58.263 C37.193,58.263 38.16,57.302 38.16,56.116 C38.1555892,54.9271587 37.1888448,53.9666803 36,53.9699914 C34.807,53.9699914 33.84,54.931 33.84,56.117 C33.84,57.303 34.807,58.264 36,58.264 L36,58.263 Z M47.52,58.263 C48.713,58.263 49.68,57.302 49.68,56.116 C49.6761399,54.9267677 48.7092339,53.9656811 47.52,53.9689914 C46.327,53.9689914 45.36,54.93 45.36,56.116 C45.36,57.302 46.327,58.263 47.52,58.263 L47.52,58.263 Z M57.038,56.932 C57.204,57.325 57.483,57.66 57.838,57.896 C58.194,58.133 58.612,58.261 59.04,58.264039 C59.3165232,58.2656982 59.5905838,58.2119742 59.846,58.106 C60.118015,58.0039719 60.363947,57.8427498 60.566,57.634 C60.7600506,57.4318729 60.9204212,57.1999264 61.041,56.947 C61.158,56.636 61.207,56.304 61.186,55.973 C61.206,55.85 61.206,55.724 61.186,55.601 L61.114,55.358 C61.0609976,55.1916485 60.9779595,55.0364181 60.869,54.9 C60.7723519,54.7598966 60.6614243,54.6302018 60.538,54.513 L60.336,54.399 C60.1947559,54.2813043 60.0339953,54.1892478 59.861,54.127 C59.6594526,54.0591467 59.4518216,54.0109227 59.241,53.983 C58.6013249,53.9125973 57.9647241,54.1396651 57.514,54.599 C57.1116244,55.0021777 56.8839093,55.5474009 56.88,56.117 C56.883,56.349 56.917,56.58 56.98,56.804 L57.038,56.932 L57.038,56.932 Z" id="Shape"></path>
            </g>
        </g>
    </g>
</svg>